<mxfile host="app.diagrams.net" agent="Mozilla/5.0 (Windows NT 10.0; Win64; x64) AppleWebKit/537.36 (KHTML, like Gecko) Chrome/129.0.0.0 Safari/537.36" version="24.7.16">
  <diagram name="Page-1" id="bTeFORcYH4NJHquGIz-w">
    <mxGraphModel dx="1387" dy="437" grid="1" gridSize="10" guides="1" tooltips="1" connect="1" arrows="1" fold="1" page="1" pageScale="1" pageWidth="850" pageHeight="1100" math="0" shadow="0">
      <root>
        <mxCell id="0" />
        <mxCell id="1" parent="0" />
        <mxCell id="8M_Mbj_AWUgq23SxY0lT-14" style="edgeStyle=orthogonalEdgeStyle;rounded=0;orthogonalLoop=1;jettySize=auto;html=1;exitX=0.041;exitY=0.333;exitDx=0;exitDy=0;exitPerimeter=0;entryX=1;entryY=0.35;entryDx=0;entryDy=0;entryPerimeter=0;" edge="1" parent="1" source="8M_Mbj_AWUgq23SxY0lT-10" target="8M_Mbj_AWUgq23SxY0lT-11">
          <mxGeometry relative="1" as="geometry">
            <mxPoint x="161" y="187" as="targetPoint" />
            <Array as="points">
              <mxPoint x="403" y="160" />
            </Array>
          </mxGeometry>
        </mxCell>
        <mxCell id="8M_Mbj_AWUgq23SxY0lT-65" value="Status Not Authenticated" style="edgeLabel;html=1;align=center;verticalAlign=middle;resizable=0;points=[];" vertex="1" connectable="0" parent="8M_Mbj_AWUgq23SxY0lT-14">
          <mxGeometry x="-0.0687" y="-1" relative="1" as="geometry">
            <mxPoint x="1" as="offset" />
          </mxGeometry>
        </mxCell>
        <mxCell id="8M_Mbj_AWUgq23SxY0lT-30" style="edgeStyle=orthogonalEdgeStyle;rounded=0;orthogonalLoop=1;jettySize=auto;html=1;exitX=0.5;exitY=0;exitDx=0;exitDy=0;entryX=0.75;entryY=0;entryDx=0;entryDy=0;" edge="1" parent="1" source="8M_Mbj_AWUgq23SxY0lT-10" target="8M_Mbj_AWUgq23SxY0lT-16">
          <mxGeometry relative="1" as="geometry" />
        </mxCell>
        <mxCell id="8M_Mbj_AWUgq23SxY0lT-31" value="query email and password" style="edgeLabel;html=1;align=center;verticalAlign=middle;resizable=0;points=[];" vertex="1" connectable="0" parent="8M_Mbj_AWUgq23SxY0lT-30">
          <mxGeometry x="-0.1518" y="1" relative="1" as="geometry">
            <mxPoint as="offset" />
          </mxGeometry>
        </mxCell>
        <mxCell id="8M_Mbj_AWUgq23SxY0lT-63" style="edgeStyle=orthogonalEdgeStyle;rounded=0;orthogonalLoop=1;jettySize=auto;html=1;exitX=0;exitY=0;exitDx=0;exitDy=0;entryX=0.5;entryY=0;entryDx=0;entryDy=0;" edge="1" parent="1" source="8M_Mbj_AWUgq23SxY0lT-10" target="8M_Mbj_AWUgq23SxY0lT-11">
          <mxGeometry relative="1" as="geometry">
            <Array as="points">
              <mxPoint x="410" y="122" />
              <mxPoint x="100" y="122" />
            </Array>
          </mxGeometry>
        </mxCell>
        <mxCell id="8M_Mbj_AWUgq23SxY0lT-64" value="Status : Authenticated" style="edgeLabel;html=1;align=center;verticalAlign=middle;resizable=0;points=[];" vertex="1" connectable="0" parent="8M_Mbj_AWUgq23SxY0lT-63">
          <mxGeometry x="-0.0061" y="1" relative="1" as="geometry">
            <mxPoint as="offset" />
          </mxGeometry>
        </mxCell>
        <mxCell id="8M_Mbj_AWUgq23SxY0lT-10" value="Validate Email and Password" style="ellipse;whiteSpace=wrap;html=1;aspect=fixed;" vertex="1" parent="1">
          <mxGeometry x="400" y="142.5" width="70" height="70" as="geometry" />
        </mxCell>
        <mxCell id="8M_Mbj_AWUgq23SxY0lT-57" style="edgeStyle=orthogonalEdgeStyle;rounded=0;orthogonalLoop=1;jettySize=auto;html=1;exitX=0.75;exitY=1;exitDx=0;exitDy=0;entryX=0;entryY=1;entryDx=0;entryDy=0;" edge="1" parent="1" source="8M_Mbj_AWUgq23SxY0lT-11" target="8M_Mbj_AWUgq23SxY0lT-34">
          <mxGeometry relative="1" as="geometry">
            <Array as="points">
              <mxPoint x="120" y="349" />
            </Array>
          </mxGeometry>
        </mxCell>
        <mxCell id="8M_Mbj_AWUgq23SxY0lT-58" value="Provide new user details" style="edgeLabel;html=1;align=center;verticalAlign=middle;resizable=0;points=[];" vertex="1" connectable="0" parent="8M_Mbj_AWUgq23SxY0lT-57">
          <mxGeometry x="0.1906" y="-1" relative="1" as="geometry">
            <mxPoint x="-1" as="offset" />
          </mxGeometry>
        </mxCell>
        <mxCell id="8M_Mbj_AWUgq23SxY0lT-71" style="edgeStyle=orthogonalEdgeStyle;rounded=0;orthogonalLoop=1;jettySize=auto;html=1;exitX=0;exitY=1;exitDx=0;exitDy=0;entryX=0;entryY=0.5;entryDx=0;entryDy=0;" edge="1" parent="1" source="8M_Mbj_AWUgq23SxY0lT-11" target="8M_Mbj_AWUgq23SxY0lT-72">
          <mxGeometry relative="1" as="geometry">
            <mxPoint x="381" y="720" as="targetPoint" />
            <Array as="points">
              <mxPoint x="50" y="740" />
              <mxPoint x="381" y="740" />
            </Array>
          </mxGeometry>
        </mxCell>
        <mxCell id="8M_Mbj_AWUgq23SxY0lT-73" value="Add product to cart" style="edgeLabel;html=1;align=center;verticalAlign=middle;resizable=0;points=[];" vertex="1" connectable="0" parent="8M_Mbj_AWUgq23SxY0lT-71">
          <mxGeometry x="0.498" relative="1" as="geometry">
            <mxPoint as="offset" />
          </mxGeometry>
        </mxCell>
        <mxCell id="8M_Mbj_AWUgq23SxY0lT-91" style="edgeStyle=orthogonalEdgeStyle;rounded=0;orthogonalLoop=1;jettySize=auto;html=1;exitX=0;exitY=0.75;exitDx=0;exitDy=0;entryX=0;entryY=0.5;entryDx=0;entryDy=0;" edge="1" parent="1" source="8M_Mbj_AWUgq23SxY0lT-11" target="8M_Mbj_AWUgq23SxY0lT-90">
          <mxGeometry relative="1" as="geometry" />
        </mxCell>
        <mxCell id="8M_Mbj_AWUgq23SxY0lT-92" value="Request order delivery status" style="edgeLabel;html=1;align=center;verticalAlign=middle;resizable=0;points=[];" vertex="1" connectable="0" parent="8M_Mbj_AWUgq23SxY0lT-91">
          <mxGeometry x="0.6691" y="2" relative="1" as="geometry">
            <mxPoint as="offset" />
          </mxGeometry>
        </mxCell>
        <mxCell id="8M_Mbj_AWUgq23SxY0lT-11" value="User" style="rounded=0;whiteSpace=wrap;html=1;" vertex="1" parent="1">
          <mxGeometry x="50" y="142.5" width="100" height="50" as="geometry" />
        </mxCell>
        <mxCell id="8M_Mbj_AWUgq23SxY0lT-47" style="edgeStyle=orthogonalEdgeStyle;rounded=0;orthogonalLoop=1;jettySize=auto;html=1;exitX=1;exitY=0;exitDx=0;exitDy=0;entryX=0.5;entryY=1;entryDx=0;entryDy=0;" edge="1" parent="1" source="8M_Mbj_AWUgq23SxY0lT-15" target="8M_Mbj_AWUgq23SxY0lT-18">
          <mxGeometry relative="1" as="geometry" />
        </mxCell>
        <mxCell id="8M_Mbj_AWUgq23SxY0lT-49" value="Query product" style="edgeLabel;html=1;align=center;verticalAlign=middle;resizable=0;points=[];" vertex="1" connectable="0" parent="8M_Mbj_AWUgq23SxY0lT-47">
          <mxGeometry x="-0.4475" y="1" relative="1" as="geometry">
            <mxPoint as="offset" />
          </mxGeometry>
        </mxCell>
        <mxCell id="8M_Mbj_AWUgq23SxY0lT-55" style="edgeStyle=orthogonalEdgeStyle;rounded=0;orthogonalLoop=1;jettySize=auto;html=1;exitX=0;exitY=1;exitDx=0;exitDy=0;entryX=1;entryY=1;entryDx=0;entryDy=0;" edge="1" parent="1" source="8M_Mbj_AWUgq23SxY0lT-15" target="8M_Mbj_AWUgq23SxY0lT-11">
          <mxGeometry relative="1" as="geometry">
            <Array as="points">
              <mxPoint x="200" y="543" />
              <mxPoint x="200" y="219" />
            </Array>
          </mxGeometry>
        </mxCell>
        <mxCell id="8M_Mbj_AWUgq23SxY0lT-56" value="Query Result&amp;nbsp;" style="edgeLabel;html=1;align=center;verticalAlign=middle;resizable=0;points=[];" vertex="1" connectable="0" parent="8M_Mbj_AWUgq23SxY0lT-55">
          <mxGeometry x="0.5137" y="-3" relative="1" as="geometry">
            <mxPoint x="-3" y="1" as="offset" />
          </mxGeometry>
        </mxCell>
        <mxCell id="8M_Mbj_AWUgq23SxY0lT-15" value="Search Food Products handler" style="ellipse;whiteSpace=wrap;html=1;aspect=fixed;" vertex="1" parent="1">
          <mxGeometry x="390" y="529" width="70" height="70" as="geometry" />
        </mxCell>
        <mxCell id="8M_Mbj_AWUgq23SxY0lT-32" style="edgeStyle=orthogonalEdgeStyle;rounded=0;orthogonalLoop=1;jettySize=auto;html=1;exitX=0;exitY=0.5;exitDx=0;exitDy=0;entryX=0.5;entryY=1;entryDx=0;entryDy=0;" edge="1" parent="1" source="8M_Mbj_AWUgq23SxY0lT-16" target="8M_Mbj_AWUgq23SxY0lT-10">
          <mxGeometry relative="1" as="geometry" />
        </mxCell>
        <mxCell id="8M_Mbj_AWUgq23SxY0lT-33" value="query result" style="edgeLabel;html=1;align=center;verticalAlign=middle;resizable=0;points=[];" vertex="1" connectable="0" parent="8M_Mbj_AWUgq23SxY0lT-32">
          <mxGeometry x="-0.1193" y="-1" relative="1" as="geometry">
            <mxPoint as="offset" />
          </mxGeometry>
        </mxCell>
        <mxCell id="8M_Mbj_AWUgq23SxY0lT-16" value="User Table" style="html=1;dashed=0;whiteSpace=wrap;shape=partialRectangle;right=0;" vertex="1" parent="1">
          <mxGeometry x="630" y="217" width="100" height="30" as="geometry" />
        </mxCell>
        <mxCell id="8M_Mbj_AWUgq23SxY0lT-17" value="Admin Table" style="html=1;dashed=0;whiteSpace=wrap;shape=partialRectangle;right=0;" vertex="1" parent="1">
          <mxGeometry x="640" y="70" width="100" height="30" as="geometry" />
        </mxCell>
        <mxCell id="8M_Mbj_AWUgq23SxY0lT-50" style="edgeStyle=orthogonalEdgeStyle;rounded=0;orthogonalLoop=1;jettySize=auto;html=1;exitX=0.75;exitY=1;exitDx=0;exitDy=0;entryX=1;entryY=1;entryDx=0;entryDy=0;" edge="1" parent="1" source="8M_Mbj_AWUgq23SxY0lT-18" target="8M_Mbj_AWUgq23SxY0lT-15">
          <mxGeometry relative="1" as="geometry">
            <mxPoint x="705" y="419" as="sourcePoint" />
            <mxPoint x="450" y="543" as="targetPoint" />
            <Array as="points">
              <mxPoint x="705" y="607" />
            </Array>
          </mxGeometry>
        </mxCell>
        <mxCell id="8M_Mbj_AWUgq23SxY0lT-52" value="Query Response" style="edgeLabel;html=1;align=center;verticalAlign=middle;resizable=0;points=[];" vertex="1" connectable="0" parent="8M_Mbj_AWUgq23SxY0lT-50">
          <mxGeometry x="0.473" relative="1" as="geometry">
            <mxPoint as="offset" />
          </mxGeometry>
        </mxCell>
        <mxCell id="8M_Mbj_AWUgq23SxY0lT-18" value="Food Table" style="html=1;dashed=0;whiteSpace=wrap;shape=partialRectangle;right=0;" vertex="1" parent="1">
          <mxGeometry x="630" y="370" width="100" height="30" as="geometry" />
        </mxCell>
        <mxCell id="8M_Mbj_AWUgq23SxY0lT-43" style="edgeStyle=orthogonalEdgeStyle;rounded=0;orthogonalLoop=1;jettySize=auto;html=1;exitX=1;exitY=0.5;exitDx=0;exitDy=0;entryX=0.25;entryY=1;entryDx=0;entryDy=0;" edge="1" parent="1" source="8M_Mbj_AWUgq23SxY0lT-19" target="8M_Mbj_AWUgq23SxY0lT-18">
          <mxGeometry relative="1" as="geometry" />
        </mxCell>
        <mxCell id="8M_Mbj_AWUgq23SxY0lT-44" value="Update Data Query" style="edgeLabel;html=1;align=center;verticalAlign=middle;resizable=0;points=[];" vertex="1" connectable="0" parent="8M_Mbj_AWUgq23SxY0lT-43">
          <mxGeometry x="-0.376" y="1" relative="1" as="geometry">
            <mxPoint x="2" as="offset" />
          </mxGeometry>
        </mxCell>
        <mxCell id="8M_Mbj_AWUgq23SxY0lT-19" value="Update Product Data handler" style="ellipse;whiteSpace=wrap;html=1;aspect=fixed;" vertex="1" parent="1">
          <mxGeometry x="390" y="449" width="70" height="70" as="geometry" />
        </mxCell>
        <mxCell id="8M_Mbj_AWUgq23SxY0lT-61" style="edgeStyle=orthogonalEdgeStyle;rounded=0;orthogonalLoop=1;jettySize=auto;html=1;exitX=1;exitY=0.5;exitDx=0;exitDy=0;entryX=1;entryY=1;entryDx=0;entryDy=0;" edge="1" parent="1" source="8M_Mbj_AWUgq23SxY0lT-21" target="8M_Mbj_AWUgq23SxY0lT-18">
          <mxGeometry relative="1" as="geometry" />
        </mxCell>
        <mxCell id="8M_Mbj_AWUgq23SxY0lT-62" value="Delete Data query" style="edgeLabel;html=1;align=center;verticalAlign=middle;resizable=0;points=[];" vertex="1" connectable="0" parent="8M_Mbj_AWUgq23SxY0lT-61">
          <mxGeometry x="-0.4259" y="-1" relative="1" as="geometry">
            <mxPoint as="offset" />
          </mxGeometry>
        </mxCell>
        <mxCell id="8M_Mbj_AWUgq23SxY0lT-21" value="Delete Product Data handler" style="ellipse;whiteSpace=wrap;html=1;aspect=fixed;" vertex="1" parent="1">
          <mxGeometry x="381" y="619" width="70" height="70" as="geometry" />
        </mxCell>
        <mxCell id="8M_Mbj_AWUgq23SxY0lT-95" style="edgeStyle=orthogonalEdgeStyle;rounded=0;orthogonalLoop=1;jettySize=auto;html=1;exitX=1;exitY=1;exitDx=0;exitDy=0;entryX=1;entryY=1;entryDx=0;entryDy=0;" edge="1" parent="1" source="8M_Mbj_AWUgq23SxY0lT-23" target="8M_Mbj_AWUgq23SxY0lT-90">
          <mxGeometry relative="1" as="geometry">
            <Array as="points">
              <mxPoint x="810" y="910" />
            </Array>
          </mxGeometry>
        </mxCell>
        <mxCell id="8M_Mbj_AWUgq23SxY0lT-96" value="Query Response" style="edgeLabel;html=1;align=center;verticalAlign=middle;resizable=0;points=[];" vertex="1" connectable="0" parent="8M_Mbj_AWUgq23SxY0lT-95">
          <mxGeometry x="0.5193" y="-1" relative="1" as="geometry">
            <mxPoint as="offset" />
          </mxGeometry>
        </mxCell>
        <mxCell id="8M_Mbj_AWUgq23SxY0lT-23" value="Order Table" style="html=1;dashed=0;whiteSpace=wrap;shape=partialRectangle;right=0;" vertex="1" parent="1">
          <mxGeometry x="710" y="659" width="100" height="30" as="geometry" />
        </mxCell>
        <mxCell id="8M_Mbj_AWUgq23SxY0lT-24" value="" style="endArrow=classic;html=1;rounded=0;exitX=1;exitY=0;exitDx=0;exitDy=0;entryX=0;entryY=0.5;entryDx=0;entryDy=0;" edge="1" parent="1" source="8M_Mbj_AWUgq23SxY0lT-10" target="8M_Mbj_AWUgq23SxY0lT-17">
          <mxGeometry relative="1" as="geometry">
            <mxPoint x="500" y="189" as="sourcePoint" />
            <mxPoint x="600" y="189" as="targetPoint" />
            <Array as="points">
              <mxPoint x="460" y="85" />
            </Array>
          </mxGeometry>
        </mxCell>
        <mxCell id="8M_Mbj_AWUgq23SxY0lT-25" value="Query email password" style="edgeLabel;resizable=0;html=1;;align=center;verticalAlign=middle;" connectable="0" vertex="1" parent="8M_Mbj_AWUgq23SxY0lT-24">
          <mxGeometry relative="1" as="geometry">
            <mxPoint x="14" as="offset" />
          </mxGeometry>
        </mxCell>
        <mxCell id="8M_Mbj_AWUgq23SxY0lT-26" value="" style="endArrow=classic;html=1;rounded=0;exitX=0.5;exitY=1;exitDx=0;exitDy=0;entryX=1;entryY=0.5;entryDx=0;entryDy=0;" edge="1" parent="1" source="8M_Mbj_AWUgq23SxY0lT-17" target="8M_Mbj_AWUgq23SxY0lT-10">
          <mxGeometry relative="1" as="geometry">
            <mxPoint x="500" y="189" as="sourcePoint" />
            <mxPoint x="600" y="189" as="targetPoint" />
            <Array as="points">
              <mxPoint x="690" y="179" />
            </Array>
          </mxGeometry>
        </mxCell>
        <mxCell id="8M_Mbj_AWUgq23SxY0lT-27" value="Query Response" style="edgeLabel;resizable=0;html=1;;align=center;verticalAlign=middle;" connectable="0" vertex="1" parent="8M_Mbj_AWUgq23SxY0lT-26">
          <mxGeometry relative="1" as="geometry" />
        </mxCell>
        <mxCell id="8M_Mbj_AWUgq23SxY0lT-35" style="edgeStyle=orthogonalEdgeStyle;rounded=0;orthogonalLoop=1;jettySize=auto;html=1;exitX=0.5;exitY=0;exitDx=0;exitDy=0;entryX=0.5;entryY=1;entryDx=0;entryDy=0;" edge="1" parent="1" source="8M_Mbj_AWUgq23SxY0lT-34" target="8M_Mbj_AWUgq23SxY0lT-16">
          <mxGeometry relative="1" as="geometry" />
        </mxCell>
        <mxCell id="8M_Mbj_AWUgq23SxY0lT-36" value="New data Entry" style="edgeLabel;html=1;align=center;verticalAlign=middle;resizable=0;points=[];" vertex="1" connectable="0" parent="8M_Mbj_AWUgq23SxY0lT-35">
          <mxGeometry x="-0.0902" y="2" relative="1" as="geometry">
            <mxPoint as="offset" />
          </mxGeometry>
        </mxCell>
        <mxCell id="8M_Mbj_AWUgq23SxY0lT-34" value="Add New User handler" style="ellipse;whiteSpace=wrap;html=1;aspect=fixed;" vertex="1" parent="1">
          <mxGeometry x="390" y="289" width="70" height="70" as="geometry" />
        </mxCell>
        <mxCell id="8M_Mbj_AWUgq23SxY0lT-40" style="edgeStyle=orthogonalEdgeStyle;rounded=0;orthogonalLoop=1;jettySize=auto;html=1;exitX=0.75;exitY=0;exitDx=0;exitDy=0;entryX=0;entryY=0.5;entryDx=0;entryDy=0;" edge="1" parent="1" source="8M_Mbj_AWUgq23SxY0lT-37" target="8M_Mbj_AWUgq23SxY0lT-19">
          <mxGeometry relative="1" as="geometry">
            <Array as="points">
              <mxPoint x="148" y="484" />
            </Array>
          </mxGeometry>
        </mxCell>
        <mxCell id="8M_Mbj_AWUgq23SxY0lT-42" value="Provide&lt;br&gt;Updated&lt;br&gt;Info" style="edgeLabel;html=1;align=center;verticalAlign=middle;resizable=0;points=[];" vertex="1" connectable="0" parent="8M_Mbj_AWUgq23SxY0lT-40">
          <mxGeometry x="-0.1617" y="2" relative="1" as="geometry">
            <mxPoint as="offset" />
          </mxGeometry>
        </mxCell>
        <mxCell id="8M_Mbj_AWUgq23SxY0lT-45" style="edgeStyle=orthogonalEdgeStyle;rounded=0;orthogonalLoop=1;jettySize=auto;html=1;exitX=1;exitY=0.75;exitDx=0;exitDy=0;entryX=0;entryY=0.5;entryDx=0;entryDy=0;" edge="1" parent="1" source="8M_Mbj_AWUgq23SxY0lT-11" target="8M_Mbj_AWUgq23SxY0lT-15">
          <mxGeometry relative="1" as="geometry" />
        </mxCell>
        <mxCell id="8M_Mbj_AWUgq23SxY0lT-46" value="Query product&amp;nbsp;with&amp;nbsp;name" style="edgeLabel;html=1;align=center;verticalAlign=middle;resizable=0;points=[];" vertex="1" connectable="0" parent="8M_Mbj_AWUgq23SxY0lT-45">
          <mxGeometry x="-0.01" y="-2" relative="1" as="geometry">
            <mxPoint x="1" y="-86" as="offset" />
          </mxGeometry>
        </mxCell>
        <mxCell id="8M_Mbj_AWUgq23SxY0lT-59" style="edgeStyle=orthogonalEdgeStyle;rounded=0;orthogonalLoop=1;jettySize=auto;html=1;exitX=0.75;exitY=1;exitDx=0;exitDy=0;entryX=0;entryY=0.5;entryDx=0;entryDy=0;" edge="1" parent="1" source="8M_Mbj_AWUgq23SxY0lT-37" target="8M_Mbj_AWUgq23SxY0lT-21">
          <mxGeometry relative="1" as="geometry" />
        </mxCell>
        <mxCell id="8M_Mbj_AWUgq23SxY0lT-60" value="provide data id to be deleted" style="edgeLabel;html=1;align=center;verticalAlign=middle;resizable=0;points=[];" vertex="1" connectable="0" parent="8M_Mbj_AWUgq23SxY0lT-59">
          <mxGeometry x="0.0733" y="-1" relative="1" as="geometry">
            <mxPoint as="offset" />
          </mxGeometry>
        </mxCell>
        <mxCell id="8M_Mbj_AWUgq23SxY0lT-67" style="edgeStyle=orthogonalEdgeStyle;rounded=0;orthogonalLoop=1;jettySize=auto;html=1;exitX=0.5;exitY=0;exitDx=0;exitDy=0;entryX=0;entryY=0.5;entryDx=0;entryDy=0;" edge="1" parent="1" source="8M_Mbj_AWUgq23SxY0lT-37" target="8M_Mbj_AWUgq23SxY0lT-66">
          <mxGeometry relative="1" as="geometry" />
        </mxCell>
        <mxCell id="8M_Mbj_AWUgq23SxY0lT-68" value="provide food product details" style="edgeLabel;html=1;align=center;verticalAlign=middle;resizable=0;points=[];" vertex="1" connectable="0" parent="8M_Mbj_AWUgq23SxY0lT-67">
          <mxGeometry x="0.1591" y="-1" relative="1" as="geometry">
            <mxPoint as="offset" />
          </mxGeometry>
        </mxCell>
        <mxCell id="8M_Mbj_AWUgq23SxY0lT-37" value="Admin" style="rounded=0;whiteSpace=wrap;html=1;" vertex="1" parent="1">
          <mxGeometry x="70" y="490" width="110" height="57" as="geometry" />
        </mxCell>
        <mxCell id="8M_Mbj_AWUgq23SxY0lT-69" style="edgeStyle=orthogonalEdgeStyle;rounded=0;orthogonalLoop=1;jettySize=auto;html=1;exitX=1;exitY=0;exitDx=0;exitDy=0;entryX=0.5;entryY=0;entryDx=0;entryDy=0;" edge="1" parent="1" source="8M_Mbj_AWUgq23SxY0lT-66" target="8M_Mbj_AWUgq23SxY0lT-18">
          <mxGeometry relative="1" as="geometry">
            <Array as="points">
              <mxPoint x="450" y="360" />
              <mxPoint x="680" y="360" />
            </Array>
          </mxGeometry>
        </mxCell>
        <mxCell id="8M_Mbj_AWUgq23SxY0lT-70" value="Add data query&amp;nbsp;" style="edgeLabel;html=1;align=center;verticalAlign=middle;resizable=0;points=[];" vertex="1" connectable="0" parent="8M_Mbj_AWUgq23SxY0lT-69">
          <mxGeometry x="-0.0338" y="-1" relative="1" as="geometry">
            <mxPoint as="offset" />
          </mxGeometry>
        </mxCell>
        <mxCell id="8M_Mbj_AWUgq23SxY0lT-66" value="Add&lt;br&gt;&amp;nbsp;Product Data handler" style="ellipse;whiteSpace=wrap;html=1;aspect=fixed;" vertex="1" parent="1">
          <mxGeometry x="390" y="370" width="70" height="70" as="geometry" />
        </mxCell>
        <mxCell id="8M_Mbj_AWUgq23SxY0lT-79" style="edgeStyle=orthogonalEdgeStyle;rounded=0;orthogonalLoop=1;jettySize=auto;html=1;exitX=1;exitY=0.5;exitDx=0;exitDy=0;entryX=0;entryY=0.5;entryDx=0;entryDy=0;" edge="1" parent="1" source="8M_Mbj_AWUgq23SxY0lT-72" target="8M_Mbj_AWUgq23SxY0lT-78">
          <mxGeometry relative="1" as="geometry" />
        </mxCell>
        <mxCell id="8M_Mbj_AWUgq23SxY0lT-80" value="Payment Process" style="edgeLabel;html=1;align=center;verticalAlign=middle;resizable=0;points=[];" vertex="1" connectable="0" parent="8M_Mbj_AWUgq23SxY0lT-79">
          <mxGeometry x="-0.1096" y="-2" relative="1" as="geometry">
            <mxPoint as="offset" />
          </mxGeometry>
        </mxCell>
        <mxCell id="8M_Mbj_AWUgq23SxY0lT-72" value="Entry Order" style="ellipse;whiteSpace=wrap;html=1;aspect=fixed;" vertex="1" parent="1">
          <mxGeometry x="381" y="710" width="70" height="70" as="geometry" />
        </mxCell>
        <mxCell id="8M_Mbj_AWUgq23SxY0lT-82" style="edgeStyle=orthogonalEdgeStyle;rounded=0;orthogonalLoop=1;jettySize=auto;html=1;exitX=0.5;exitY=1;exitDx=0;exitDy=0;entryX=0;entryY=0.5;entryDx=0;entryDy=0;" edge="1" parent="1" source="8M_Mbj_AWUgq23SxY0lT-78" target="8M_Mbj_AWUgq23SxY0lT-81">
          <mxGeometry relative="1" as="geometry" />
        </mxCell>
        <mxCell id="8M_Mbj_AWUgq23SxY0lT-83" value="payment query with user details" style="edgeLabel;html=1;align=center;verticalAlign=middle;resizable=0;points=[];" vertex="1" connectable="0" parent="8M_Mbj_AWUgq23SxY0lT-82">
          <mxGeometry x="-0.1524" y="1" relative="1" as="geometry">
            <mxPoint x="14" y="-34" as="offset" />
          </mxGeometry>
        </mxCell>
        <mxCell id="8M_Mbj_AWUgq23SxY0lT-84" style="edgeStyle=orthogonalEdgeStyle;rounded=0;orthogonalLoop=1;jettySize=auto;html=1;exitX=1;exitY=0.5;exitDx=0;exitDy=0;entryX=0.5;entryY=1;entryDx=0;entryDy=0;" edge="1" parent="1" source="8M_Mbj_AWUgq23SxY0lT-78" target="8M_Mbj_AWUgq23SxY0lT-23">
          <mxGeometry relative="1" as="geometry" />
        </mxCell>
        <mxCell id="8M_Mbj_AWUgq23SxY0lT-85" value="New order query" style="edgeLabel;html=1;align=center;verticalAlign=middle;resizable=0;points=[];" vertex="1" connectable="0" parent="8M_Mbj_AWUgq23SxY0lT-84">
          <mxGeometry x="-0.3433" y="1" relative="1" as="geometry">
            <mxPoint as="offset" />
          </mxGeometry>
        </mxCell>
        <mxCell id="8M_Mbj_AWUgq23SxY0lT-78" value="Stripe payment Form&amp;nbsp;" style="ellipse;whiteSpace=wrap;html=1;aspect=fixed;" vertex="1" parent="1">
          <mxGeometry x="570" y="710" width="70" height="70" as="geometry" />
        </mxCell>
        <mxCell id="8M_Mbj_AWUgq23SxY0lT-81" value="Payment Table" style="html=1;dashed=0;whiteSpace=wrap;shape=partialRectangle;right=0;" vertex="1" parent="1">
          <mxGeometry x="680" y="820" width="100" height="30" as="geometry" />
        </mxCell>
        <mxCell id="8M_Mbj_AWUgq23SxY0lT-93" style="edgeStyle=orthogonalEdgeStyle;rounded=0;orthogonalLoop=1;jettySize=auto;html=1;exitX=1;exitY=0.5;exitDx=0;exitDy=0;entryX=0.75;entryY=1;entryDx=0;entryDy=0;" edge="1" parent="1" source="8M_Mbj_AWUgq23SxY0lT-90" target="8M_Mbj_AWUgq23SxY0lT-23">
          <mxGeometry relative="1" as="geometry" />
        </mxCell>
        <mxCell id="8M_Mbj_AWUgq23SxY0lT-94" value="query order delivery status" style="edgeLabel;html=1;align=center;verticalAlign=middle;resizable=0;points=[];" vertex="1" connectable="0" parent="8M_Mbj_AWUgq23SxY0lT-93">
          <mxGeometry x="-0.4197" y="2" relative="1" as="geometry">
            <mxPoint as="offset" />
          </mxGeometry>
        </mxCell>
        <mxCell id="8M_Mbj_AWUgq23SxY0lT-97" style="edgeStyle=orthogonalEdgeStyle;rounded=0;orthogonalLoop=1;jettySize=auto;html=1;exitX=0;exitY=1;exitDx=0;exitDy=0;entryX=0;entryY=0.25;entryDx=0;entryDy=0;" edge="1" parent="1" source="8M_Mbj_AWUgq23SxY0lT-90" target="8M_Mbj_AWUgq23SxY0lT-11">
          <mxGeometry relative="1" as="geometry">
            <mxPoint x="351.251262658471" y="959.748737341529" as="sourcePoint" />
            <mxPoint x="10" y="155" as="targetPoint" />
            <Array as="points">
              <mxPoint x="11" y="910" />
              <mxPoint x="11" y="155" />
            </Array>
          </mxGeometry>
        </mxCell>
        <mxCell id="8M_Mbj_AWUgq23SxY0lT-98" value="Provide order delivey status" style="edgeLabel;html=1;align=center;verticalAlign=middle;resizable=0;points=[];" vertex="1" connectable="0" parent="8M_Mbj_AWUgq23SxY0lT-97">
          <mxGeometry x="-0.6583" y="-1" relative="1" as="geometry">
            <mxPoint as="offset" />
          </mxGeometry>
        </mxCell>
        <mxCell id="8M_Mbj_AWUgq23SxY0lT-90" value="Order History handler" style="ellipse;whiteSpace=wrap;html=1;aspect=fixed;" vertex="1" parent="1">
          <mxGeometry x="400" y="830" width="70" height="70" as="geometry" />
        </mxCell>
      </root>
    </mxGraphModel>
  </diagram>
</mxfile>
